<?xml version="1.0" encoding="UTF-8" standalone="no"?>
<!-- Created with Inkscape (http://www.inkscape.org/) -->

<svg
   xmlns:dc="http://purl.org/dc/elements/1.1/"
   xmlns:cc="http://creativecommons.org/ns#"
   xmlns:rdf="http://www.w3.org/1999/02/22-rdf-syntax-ns#"
   xmlns:svg="http://www.w3.org/2000/svg"
   xmlns="http://www.w3.org/2000/svg"
   xmlns:sodipodi="http://sodipodi.sourceforge.net/DTD/sodipodi-0.dtd"
   xmlns:inkscape="http://www.inkscape.org/namespaces/inkscape"
   width="210mm"
   height="200mm"
   viewBox="0 0 744.09449 708.66141"
   id="svg2"
   version="1.1"
   inkscape:version="0.92.1 r15371"
   sodipodi:docname="drawingblanc.svg">
  <defs
     id="defs4">
    <inkscape:perspective
       sodipodi:type="inkscape:persp3d"
       inkscape:vp_x="0 : 526.18106 : 1"
       inkscape:vp_y="0 : 999.99994 : 0"
       inkscape:vp_z="744.09449 : 526.18106 : 1"
       inkscape:persp3d-origin="372.04724 : 350.78738 : 1"
       id="perspective4299" />
  </defs>
  <sodipodi:namedview
     id="base"
     pagecolor="#ffffff"
     bordercolor="#66bb66"
     borderopacity="0.20784314"
     inkscape:pageopacity="0.0"
     inkscape:pageshadow="2"
     inkscape:zoom="0.98818173"
     inkscape:cx="450.85852"
     inkscape:cy="288.43121"
     inkscape:document-units="px"
     inkscape:current-layer="layer1"
     showgrid="false"
     inkscape:window-width="1920"
     inkscape:window-height="1016"
     inkscape:window-x="0"
     inkscape:window-y="27"
     inkscape:window-maximized="1"
     showborder="true"
     borderlayer="false">
    <inkscape:grid
       type="xygrid"
       id="grid4156" />
  </sodipodi:namedview>
  <metadata
     id="metadata7">
    <rdf:RDF>
      <cc:Work
         rdf:about="">
        <dc:format>image/svg+xml</dc:format>
        <dc:type
           rdf:resource="http://purl.org/dc/dcmitype/StillImage" />
        <dc:title />
      </cc:Work>
    </rdf:RDF>
  </metadata>
  <g
     inkscape:label="Layer 1"
     inkscape:groupmode="layer"
     id="layer1"
     transform="translate(0,-343.70079)">
    <flowRoot
       xml:space="preserve"
       id="flowRoot4250"
       style="font-style:normal;font-weight:normal;line-height:0.01%;font-family:sans-serif;letter-spacing:0px;word-spacing:0px;fill:#000000;fill-opacity:1;stroke:none;stroke-width:1px;stroke-linecap:butt;stroke-linejoin:miter;stroke-opacity:1"><flowRegion
         id="flowRegion4252"><rect
           id="rect4254"
           width="87.14286"
           height="54.285713"
           x="680"
           y="693.79077" /></flowRegion><flowPara
         id="flowPara4256"
         style="font-size:40px;line-height:1.25"> </flowPara></flowRoot>    <rect
       style="fill:#009d00;fill-opacity:0;fill-rule:evenodd;stroke:#202731;stroke-width:1.37681174;stroke-miterlimit:4;stroke-dasharray:none;stroke-opacity:1"
       id="rect4251"
       width="971.40436"
       height="987.59576"
       x="-139.61201"
       y="246.95251" />
    <g
       transform="translate(0,292)"
       style="font-style:normal;font-weight:normal;font-size:40px;line-height:125%;font-family:sans-serif;letter-spacing:0px;word-spacing:0px;fill:#ffffff;fill-opacity:1;stroke:none;stroke-width:1px;stroke-linecap:butt;stroke-linejoin:miter;stroke-opacity:1"
       id="flowRoot4136">
      <path
         d="m 247.44824,310.50374 c -3.99902,0 -8.30566,-3.25196 -8.30566,-7.20704 l -14.10645,3.03223 c 1.58203,10.54688 11.51367,18.58887 22.45606,18.58887 11.95312,0 22.67578,-9.66797 22.67578,-21.6211 0,-9.84375 -7.91016,-16.65527 -16.83106,-19.24804 -4.92187,-1.4502 -13.00781,-3.16407 -13.00781,-9.53614 0,-3.91113 3.25195,-7.20703 7.20703,-7.20703 3.91114,0 7.16309,3.2959 7.16309,7.16309 l 14.15039,-2.98828 c -1.49414,-10.50293 -10.50293,-18.58887 -21.40137,-18.58887 -11.95312,0 -21.62109,9.62402 -21.62109,21.57715 0,9.66797 7.60254,16.74316 16.25976,19.6875 4.87793,1.71387 13.57911,2.59277 13.57911,9.05273 0,3.95508 -4.35059,7.20703 -8.26172,7.20703 l 0.0439,0.0879 z"
         style="font-style:normal;font-variant:normal;font-weight:normal;font-stretch:normal;font-size:90px;font-family:'Lemon/Milk';-inkscape-font-specification:'Lemon/Milk';text-align:center;text-anchor:middle;fill:#ffffff;fill-opacity:1"
         id="path4231"
         inkscape:connector-curvature="0" />
      <path
         d="m 270.21191,324.34651 15.38086,0 4.79004,-10.7666 24.25781,0 4.79004,10.7666 15.42481,0 -32.34375,-72.29004 -32.29981,72.29004 z m 25.7959,-23.33496 6.54785,-14.98535 6.45996,14.98535 -13.00781,0 z"
         style="font-style:normal;font-variant:normal;font-weight:normal;font-stretch:normal;font-size:90px;font-family:'Lemon/Milk';-inkscape-font-specification:'Lemon/Milk';text-align:center;text-anchor:middle;fill:#ffffff;fill-opacity:1"
         id="path4233"
         inkscape:connector-curvature="0" />
      <path
         d="m 341.05176,324.34651 14.23828,0 0,-31.33301 20.34668,31.33301 17.40234,0 -16.47949,-25.66406 c 4.04297,-1.58204 6.02051,-3.03223 8.48145,-6.54786 2.98828,-4.21875 4.48242,-8.70117 4.48242,-13.49121 l 0,-1.8457 c 0,-7.82227 -2.50489,-11.7334 -6.81153,-16.08398 -4.30664,-4.21875 -10.67871,-7.20704 -18.54492,-7.20704 l -23.11523,0 0,70.83985 z m 24.47754,-37.13379 -4.7461,0 0,-0.0439 -5.49316,0 0,-19.55566 7.99805,0 c 3.42773,0 6.89941,1.05469 8.78906,2.8125 1.8457,1.97754 2.8125,4.2627 2.8125,6.85547 0,5.36133 -4.17481,9.93164 -9.36035,9.93164 z"
         style="font-style:normal;font-variant:normal;font-weight:normal;font-stretch:normal;font-size:90px;font-family:'Lemon/Milk';-inkscape-font-specification:'Lemon/Milk';text-align:center;text-anchor:middle;fill:#ffffff;fill-opacity:1"
         id="path4235"
         inkscape:connector-curvature="0" />
      <path
         d="m 396.59863,324.34651 15.38086,0 4.79004,-10.7666 24.25781,0 4.79004,10.7666 15.42481,0 -32.34375,-72.29004 -32.29981,72.29004 z m 25.7959,-23.33496 6.54785,-14.98535 6.45996,14.98535 -13.00781,0 z"
         style="font-style:normal;font-variant:normal;font-weight:normal;font-stretch:normal;font-size:90px;font-family:'Lemon/Milk';-inkscape-font-specification:'Lemon/Milk';text-align:center;text-anchor:middle;fill:#ffffff;fill-opacity:1"
         id="path4237"
         inkscape:connector-curvature="0" />
      <path
         d="m 467.43848,253.50666 0,70.83985 14.19433,0 0,-28.38867 23.68653,0 0,28.38867 14.19433,0 0,-70.83985 -14.19433,0 0,28.34473 -23.68653,0 0,-28.34473 -14.19433,0 z"
         style="font-style:normal;font-variant:normal;font-weight:normal;font-stretch:normal;font-size:90px;font-family:'Lemon/Milk';-inkscape-font-specification:'Lemon/Milk';text-align:center;text-anchor:middle;fill:#ffffff;fill-opacity:1"
         id="path4239"
         inkscape:connector-curvature="0" />
      <path
         d="m 216.33496,436.84651 14.23828,0 0,-21.26953 10.63477,0 c 6.81152,0 12.65625,-2.41699 17.57812,-7.25098 4.87793,-4.74609 7.33887,-10.54687 7.33887,-17.49023 0,-6.85547 -2.46094,-12.7002 -7.33887,-17.57813 -4.83398,-4.83398 -10.72265,-7.25098 -17.57812,-7.25098 l -24.87305,0 0,49.57032 0,21.26953 z m 35.55176,-46.01074 c 0,5.80078 -4.87793,10.67871 -10.67871,10.67871 l -10.63477,-0.0439 0,-21.35742 10.63477,0 c 5.80078,0 10.67871,4.96582 10.67871,10.72266 z"
         style="font-style:normal;font-variant:normal;font-weight:normal;font-stretch:normal;font-size:90px;font-family:'Lemon/Milk';-inkscape-font-specification:'Lemon/Milk';text-align:center;text-anchor:middle;fill:#ffffff;fill-opacity:1"
         id="path4241"
         inkscape:connector-curvature="0" />
      <path
         d="m 272.2334,365.83088 0,71.10352 42.71484,0 0,-14.15039 -28.47656,0 0,-14.28223 21.35742,0 0,-14.19433 -21.35742,0 0,-14.28223 28.47656,0 0,-14.19434 -42.71484,0 z"
         style="font-style:normal;font-variant:normal;font-weight:normal;font-stretch:normal;font-size:90px;font-family:'Lemon/Milk';-inkscape-font-specification:'Lemon/Milk';text-align:center;text-anchor:middle;fill:#ffffff;fill-opacity:1"
         id="path4243"
         inkscape:connector-curvature="0" />
      <path
         d="m 321.10059,366.00666 0,70.83985 42.71484,0 0,-14.15039 -28.47656,0 0,-56.68946 -14.23828,0 z"
         style="font-style:normal;font-variant:normal;font-weight:normal;font-stretch:normal;font-size:90px;font-family:'Lemon/Milk';-inkscape-font-specification:'Lemon/Milk';text-align:center;text-anchor:middle;fill:#ffffff;fill-opacity:1"
         id="path4245"
         inkscape:connector-curvature="0" />
      <path
         d="m 354.14746,366.00666 0,14.10645 17.44629,0 0,56.7334 14.28223,0 0,-56.7334 17.40234,0 0,-14.10645 -49.13086,0 z"
         style="font-style:normal;font-variant:normal;font-weight:normal;font-stretch:normal;font-size:90px;font-family:'Lemon/Milk';-inkscape-font-specification:'Lemon/Milk';text-align:center;text-anchor:middle;fill:#ffffff;fill-opacity:1"
         id="path4247"
         inkscape:connector-curvature="0" />
      <path
         d="m 409.51855,436.84651 14.23829,0 0,-70.83985 -14.23829,0 0,70.83985 z"
         style="font-style:normal;font-variant:normal;font-weight:normal;font-stretch:normal;font-size:90px;font-family:'Lemon/Milk';-inkscape-font-specification:'Lemon/Milk';text-align:center;text-anchor:middle;fill:#ffffff;fill-opacity:1"
         id="path4249"
         inkscape:connector-curvature="0" />
      <path
         d="m 432.5459,365.83088 0,71.10352 42.71484,0 0,-14.15039 -28.47656,0 0,-14.28223 21.35742,0 0,-14.19433 -21.35742,0 0,-14.28223 28.47656,0 0,-14.19434 -42.71484,0 z"
         style="font-style:normal;font-variant:normal;font-weight:normal;font-stretch:normal;font-size:90px;font-family:'Lemon/Milk';-inkscape-font-specification:'Lemon/Milk';text-align:center;text-anchor:middle;fill:#ffffff;fill-opacity:1"
         id="path4251"
         inkscape:connector-curvature="0" />
      <path
         d="m 481.41309,436.84651 14.23828,0 0,-31.33301 20.34668,31.33301 17.40234,0 -16.47949,-25.66406 c 4.04297,-1.58204 6.02051,-3.03223 8.48144,-6.54786 2.98828,-4.21875 4.48243,-8.70117 4.48243,-13.49121 l 0,-1.8457 c 0,-7.82227 -2.50489,-11.7334 -6.81153,-16.08398 -4.30664,-4.21875 -10.67871,-7.20704 -18.54492,-7.20704 l -23.11523,0 0,70.83985 z m 24.47753,-37.13379 -4.74609,0 0,-0.0439 -5.49316,0 0,-19.55566 7.99804,0 c 3.42774,0 6.89942,1.05469 8.78907,2.8125 1.8457,1.97754 2.8125,4.2627 2.8125,6.85547 0,5.36133 -4.17481,9.93164 -9.36036,9.93164 z"
         style="font-style:normal;font-variant:normal;font-weight:normal;font-stretch:normal;font-size:90px;font-family:'Lemon/Milk';-inkscape-font-specification:'Lemon/Milk';text-align:center;text-anchor:middle;fill:#ffffff;fill-opacity:1"
         id="path4253"
         inkscape:connector-curvature="0" />
    </g>
    <path
       style="fill:none;fill-opacity:0.7150259;fill-rule:evenodd;stroke:#ffffff;stroke-width:2;stroke-miterlimit:4;stroke-dasharray:none;stroke-opacity:1"
       d="M 375.74257,394.88481 635.19192,658.67646 371.40027,918.12581 111.95092,654.33416 Z"
       id="rect4154"
       inkscape:connector-curvature="0" />
    <path
       style="fill:none;fill-rule:evenodd;stroke:#ffffff;stroke-width:4.5;stroke-linecap:butt;stroke-linejoin:miter;stroke-miterlimit:4;stroke-dasharray:none;stroke-opacity:1"
       d="M 346.56278,423.85438 143.70118,620.95124"
       id="path4160"
       inkscape:connector-curvature="0" />
    <path
       style="fill:none;fill-rule:evenodd;stroke:#ffffff;stroke-width:4.5;stroke-linecap:butt;stroke-linejoin:miter;stroke-miterlimit:4;stroke-dasharray:none;stroke-opacity:1"
       d="M 606.22282,684.89462 405.20576,883.87235"
       id="path4160-8"
       inkscape:connector-curvature="0" />
    <path
       style="fill:none;fill-rule:evenodd;stroke:#ffffff;stroke-width:4.5;stroke-linecap:butt;stroke-linejoin:miter;stroke-miterlimit:4;stroke-dasharray:none;stroke-opacity:1"
       d="M 607.2318,629.39165 408.52454,428.10723"
       id="path4160-8-9"
       inkscape:connector-curvature="0" />
    <path
       style="fill:none;fill-rule:evenodd;stroke:#ffffff;stroke-width:4.5;stroke-linecap:butt;stroke-linejoin:miter;stroke-miterlimit:4;stroke-dasharray:none;stroke-opacity:1"
       d="M 338.69957,885.08591 140.15757,683.63849"
       id="path4160-8-9-2"
       inkscape:connector-curvature="0" />
    <g
       transform="translate(39.999999,309.42857)"
       style="font-style:normal;font-weight:normal;font-size:40px;line-height:125%;font-family:sans-serif;letter-spacing:0px;word-spacing:0px;fill:#ffffff;fill-opacity:1;stroke:none;stroke-width:1px;stroke-linecap:butt;stroke-linejoin:miter;stroke-opacity:1"
       id="flowRoot4242">
      <path
         d="m 151.47559,651.04875 q 0,-0.045 0.045,-0.135 0,-0.045 0.09,-0.315 l 0.18,-0.45 0.36,-0.945 0.045,0.045 0,-0.045 0.405,0.99 0.225,0.72 q 0.495,1.17 0.99,2.43 0.45,1.125 0.99,2.52 0.54,1.395 1.17,2.835 1.395,3.465 3.15,7.785 l 10.755,-27.99 1.395,0 -12.015,31.365 -0.18,0 q -1.935,-4.815 -3.465,-8.595 -0.675,-1.575 -1.305,-3.105 -0.63,-1.575 -1.125,-2.79 -0.585,-1.44 -1.08,-2.7 l -6.93,17.19 -0.18,0 -12.015,-31.365 1.44,0 10.8,28.035 6.255,-15.48 0,0 z"
         style="font-style:normal;font-variant:normal;font-weight:300;font-stretch:normal;font-size:45px;font-family:ADELE;-inkscape-font-specification:'ADELE Light';text-align:center;text-anchor:middle;fill:#ffffff;fill-opacity:1"
         id="path4183"
         inkscape:connector-curvature="0" />
      <path
         d="m 177.51652,638.49375 17.64,0 0,1.26 -16.2,0 0,13.725 14.535,0 0,1.26 -14.535,0 0,13.095 16.83,0 0,1.26 -18.27,0 0,-30.6 z"
         style="font-style:normal;font-variant:normal;font-weight:300;font-stretch:normal;font-size:45px;font-family:ADELE;-inkscape-font-specification:'ADELE Light';text-align:center;text-anchor:middle;fill:#ffffff;fill-opacity:1"
         id="path4185"
         inkscape:connector-curvature="0" />
      <path
         d="m 202.56535,638.49375 9.315,0 q 2.07,0 3.6,0.585 1.575,0.54 2.61,1.53 1.035,0.99 1.575,2.295 0.54,1.305 0.54,2.835 0,2.34 -1.035,3.96 -1.035,1.575 -3.06,2.43 3.105,0.765 4.905,2.97 1.845,2.16 1.845,5.31 0,1.8 -0.63,3.375 -0.585,1.575 -1.8,2.79 -1.17,1.17 -2.97,1.845 -1.755,0.675 -4.14,0.675 l -10.755,0 0,-30.6 z m 10.08,13.23 q 3.24,0 4.68,-1.71 1.44,-1.71 1.44,-4.275 0,-1.26 -0.405,-2.34 -0.405,-1.125 -1.305,-1.935 -0.855,-0.81 -2.205,-1.26 -1.305,-0.45 -3.105,-0.45 l -7.74,0 0,11.97 8.64,0 z m 0.45,16.11 q 2.16,0 3.735,-0.54 1.575,-0.585 2.565,-1.575 1.035,-1.035 1.53,-2.385 0.495,-1.35 0.495,-2.925 0,-1.575 -0.54,-2.925 -0.495,-1.395 -1.53,-2.385 -1.035,-0.99 -2.61,-1.53 -1.575,-0.585 -3.645,-0.585 l -9.09,0 0,14.85 9.09,0 z"
         style="font-style:normal;font-variant:normal;font-weight:300;font-stretch:normal;font-size:45px;font-family:ADELE;-inkscape-font-specification:'ADELE Light';text-align:center;text-anchor:middle;fill:#ffffff;fill-opacity:1"
         id="path4187"
         inkscape:connector-curvature="0" />
      <path
         d="m 237.45793,638.49375 6.84,0 q 3.825,0 6.84,1.125 3.015,1.125 5.085,3.15 2.115,2.025 3.195,4.86 1.08,2.79 1.08,6.165 0,3.375 -1.08,6.21 -1.08,2.79 -3.15,4.815 -2.07,2.025 -5.085,3.15 -3.015,1.125 -6.885,1.125 l -6.84,0 0,-30.6 z m 6.615,29.295 q 3.735,0 6.525,-1.035 2.79,-1.035 4.635,-2.88 1.89,-1.845 2.835,-4.41 0.945,-2.565 0.945,-5.67 0,-3.105 -0.945,-5.67 -0.945,-2.565 -2.835,-4.41 -1.845,-1.845 -4.635,-2.88 -2.79,-1.035 -6.525,-1.035 l -5.175,0 0,27.99 5.175,0 z"
         style="font-style:normal;font-variant:normal;font-weight:300;font-stretch:normal;font-size:45px;font-family:ADELE;-inkscape-font-specification:'ADELE Light';text-align:center;text-anchor:middle;fill:#ffffff;fill-opacity:1"
         id="path4189"
         inkscape:connector-curvature="0" />
      <path
         d="m 267.16496,638.49375 17.64,0 0,1.26 -16.2,0 0,13.725 14.535,0 0,1.26 -14.535,0 0,13.095 16.83,0 0,1.26 -18.27,0 0,-30.6 z"
         style="font-style:normal;font-variant:normal;font-weight:300;font-stretch:normal;font-size:45px;font-family:ADELE;-inkscape-font-specification:'ADELE Light';text-align:center;text-anchor:middle;fill:#ffffff;fill-opacity:1"
         id="path4191"
         inkscape:connector-curvature="0" />
      <path
         d="m 289.51379,638.49375 1.485,0 11.115,28.125 11.115,-28.125 1.395,0 -12.465,31.365 -0.18,0 -12.465,-31.365 z"
         style="font-style:normal;font-variant:normal;font-weight:300;font-stretch:normal;font-size:45px;font-family:ADELE;-inkscape-font-specification:'ADELE Light';text-align:center;text-anchor:middle;fill:#ffffff;fill-opacity:1"
         id="path4193"
         inkscape:connector-curvature="0" />
      <path
         d="m 320.86613,638.49375 17.64,0 0,1.26 -16.2,0 0,13.725 14.535,0 0,1.26 -14.535,0 0,13.095 16.83,0 0,1.26 -18.27,0 0,-30.6 z"
         style="font-style:normal;font-variant:normal;font-weight:300;font-stretch:normal;font-size:45px;font-family:ADELE;-inkscape-font-specification:'ADELE Light';text-align:center;text-anchor:middle;fill:#ffffff;fill-opacity:1"
         id="path4195"
         inkscape:connector-curvature="0" />
      <path
         d="m 345.91496,638.49375 1.44,0 0,29.34 14.805,0 0,1.26 -16.245,0 0,-30.6 z"
         style="font-style:normal;font-variant:normal;font-weight:300;font-stretch:normal;font-size:45px;font-family:ADELE;-inkscape-font-specification:'ADELE Light';text-align:center;text-anchor:middle;fill:#ffffff;fill-opacity:1"
         id="path4197"
         inkscape:connector-curvature="0" />
      <path
         d="m 379.57848,669.45375 q -3.24,0 -6.12,-1.17 -2.835,-1.17 -4.95,-3.24 -2.115,-2.115 -3.375,-4.995 -1.215,-2.88 -1.215,-6.255 0,-3.375 1.215,-6.255 1.26,-2.88 3.375,-4.95 2.115,-2.115 4.95,-3.285 2.88,-1.17 6.12,-1.17 3.24,0 6.075,1.17 2.88,1.17 4.995,3.285 2.115,2.07 3.33,4.95 1.26,2.88 1.26,6.255 0,3.375 -1.26,6.255 -1.215,2.88 -3.33,4.995 -2.115,2.07 -4.995,3.24 -2.835,1.17 -6.075,1.17 z m 0,-1.305 q 3.015,0 5.625,-1.08 2.61,-1.08 4.5,-3.015 1.89,-1.935 2.97,-4.545 1.08,-2.61 1.08,-5.715 0,-3.105 -1.08,-5.715 -1.08,-2.61 -2.97,-4.545 -1.89,-1.935 -4.5,-3.015 -2.61,-1.08 -5.625,-1.08 -3.06,0 -5.67,1.08 -2.565,1.08 -4.455,3.015 -1.89,1.935 -2.97,4.545 -1.08,2.61 -1.08,5.715 0,3.105 1.08,5.715 1.08,2.61 2.97,4.545 1.89,1.935 4.455,3.015 2.61,1.08 5.67,1.08 z"
         style="font-style:normal;font-variant:normal;font-weight:300;font-stretch:normal;font-size:45px;font-family:ADELE;-inkscape-font-specification:'ADELE Light';text-align:center;text-anchor:middle;fill:#ffffff;fill-opacity:1"
         id="path4199"
         inkscape:connector-curvature="0" />
      <path
         d="m 403.07762,669.09375 -1.44,0 0,-30.6 5.535,0 q 3.105,0 5.4,0.9 2.295,0.9 3.78,2.43 1.53,1.53 2.295,3.6 0.765,2.07 0.765,4.41 0,2.34 -0.765,4.41 -0.765,2.07 -2.295,3.6 -1.485,1.53 -3.78,2.43 -2.295,0.855 -5.4,0.855 l -4.095,0 0,7.965 z m 3.915,-9.225 q 2.97,0 5.04,-0.765 2.115,-0.81 3.42,-2.16 1.305,-1.395 1.89,-3.195 0.63,-1.845 0.63,-3.915 0,-2.07 -0.63,-3.915 -0.585,-1.845 -1.89,-3.195 -1.305,-1.395 -3.42,-2.16 -2.07,-0.81 -5.04,-0.81 l -3.915,0 0,20.115 3.915,0 z"
         style="font-style:normal;font-variant:normal;font-weight:300;font-stretch:normal;font-size:45px;font-family:ADELE;-inkscape-font-specification:'ADELE Light';text-align:center;text-anchor:middle;fill:#ffffff;fill-opacity:1"
         id="path4201"
         inkscape:connector-curvature="0" />
      <path
         d="m 428.76488,637.86375 0.18,0 11.25,22.5 11.295,-22.5 0.18,0 3.42,31.23 -1.35,0 -2.97,-26.955 -10.575,20.925 -0.135,0 -10.44,-20.97 -2.97,27 -1.305,0 3.42,-31.23 z"
         style="font-style:normal;font-variant:normal;font-weight:300;font-stretch:normal;font-size:45px;font-family:ADELE;-inkscape-font-specification:'ADELE Light';text-align:center;text-anchor:middle;fill:#ffffff;fill-opacity:1"
         id="path4203"
         inkscape:connector-curvature="0" />
      <path
         d="m 462.98527,638.49375 17.64,0 0,1.26 -16.2,0 0,13.725 14.535,0 0,1.26 -14.535,0 0,13.095 16.83,0 0,1.26 -18.27,0 0,-30.6 z"
         style="font-style:normal;font-variant:normal;font-weight:300;font-stretch:normal;font-size:45px;font-family:ADELE;-inkscape-font-specification:'ADELE Light';text-align:center;text-anchor:middle;fill:#ffffff;fill-opacity:1"
         id="path4205"
         inkscape:connector-curvature="0" />
      <path
         d="m 489.3391,641.41875 0,27.675 -1.305,0 0,-31.365 0.18,0 21.42,28.44 0,-27.675 1.305,0 0,31.365 -0.18,0 -21.42,-28.44 z"
         style="font-style:normal;font-variant:normal;font-weight:300;font-stretch:normal;font-size:45px;font-family:ADELE;-inkscape-font-specification:'ADELE Light';text-align:center;text-anchor:middle;fill:#ffffff;fill-opacity:1"
         id="path4207"
         inkscape:connector-curvature="0" />
      <path
         d="m 526.37551,639.75375 -9.81,0 0,-1.26 21.06,0 0,1.26 -9.81,0 0,29.34 -1.44,0 0,-29.34 z"
         style="font-style:normal;font-variant:normal;font-weight:300;font-stretch:normal;font-size:45px;font-family:ADELE;-inkscape-font-specification:'ADELE Light';text-align:center;text-anchor:middle;fill:#ffffff;fill-opacity:1"
         id="path4209"
         inkscape:connector-curvature="0" />
      <path
         d="m 230.48926,707.29875 q 0,-0.045 0.045,-0.135 0,-0.045 0.09,-0.315 l 0.18,-0.45 0.36,-0.945 0.045,0.045 0,-0.045 0.405,0.99 0.225,0.72 q 0.495,1.17 0.99,2.43 0.45,1.125 0.99,2.52 0.54,1.395 1.17,2.835 1.395,3.465 3.15,7.785 l 10.755,-27.99 1.395,0 -12.015,31.365 -0.18,0 q -1.935,-4.815 -3.465,-8.595 -0.675,-1.575 -1.305,-3.105 -0.63,-1.575 -1.125,-2.79 -0.585,-1.44 -1.08,-2.7 l -6.93,17.19 -0.18,0 -12.015,-31.365 1.44,0 10.8,28.035 6.255,-15.48 0,0 z"
         style="font-style:normal;font-variant:normal;font-weight:300;font-stretch:normal;font-size:45px;font-family:ADELE;-inkscape-font-specification:'ADELE Light';text-align:center;text-anchor:middle;fill:#ffffff;fill-opacity:1"
         id="path4211"
         inkscape:connector-curvature="0" />
      <path
         d="m 256.5302,694.74375 17.64,0 0,1.26 -16.2,0 0,13.725 14.535,0 0,1.26 -14.535,0 0,13.095 16.83,0 0,1.26 -18.27,0 0,-30.6 z"
         style="font-style:normal;font-variant:normal;font-weight:300;font-stretch:normal;font-size:45px;font-family:ADELE;-inkscape-font-specification:'ADELE Light';text-align:center;text-anchor:middle;fill:#ffffff;fill-opacity:1"
         id="path4213"
         inkscape:connector-curvature="0" />
      <path
         d="m 281.57902,694.74375 9.315,0 q 2.07,0 3.6,0.585 1.575,0.54 2.61,1.53 1.035,0.99 1.575,2.295 0.54,1.305 0.54,2.835 0,2.34 -1.035,3.96 -1.035,1.575 -3.06,2.43 3.105,0.765 4.905,2.97 1.845,2.16 1.845,5.31 0,1.8 -0.63,3.375 -0.585,1.575 -1.8,2.79 -1.17,1.17 -2.97,1.845 -1.755,0.675 -4.14,0.675 l -10.755,0 0,-30.6 z m 10.08,13.23 q 3.24,0 4.68,-1.71 1.44,-1.71 1.44,-4.275 0,-1.26 -0.405,-2.34 -0.405,-1.125 -1.305,-1.935 -0.855,-0.81 -2.205,-1.26 -1.305,-0.45 -3.105,-0.45 l -7.74,0 0,11.97 8.64,0 z m 0.45,16.11 q 2.16,0 3.735,-0.54 1.575,-0.585 2.565,-1.575 1.035,-1.035 1.53,-2.385 0.495,-1.35 0.495,-2.925 0,-1.575 -0.54,-2.925 -0.495,-1.395 -1.53,-2.385 -1.035,-0.99 -2.61,-1.53 -1.575,-0.585 -3.645,-0.585 l -9.09,0 0,14.85 9.09,0 z"
         style="font-style:normal;font-variant:normal;font-weight:300;font-stretch:normal;font-size:45px;font-family:ADELE;-inkscape-font-specification:'ADELE Light';text-align:center;text-anchor:middle;fill:#ffffff;fill-opacity:1"
         id="path4215"
         inkscape:connector-curvature="0" />
      <path
         d="m 316.4716,694.74375 6.84,0 q 3.825,0 6.84,1.125 3.015,1.125 5.085,3.15 2.115,2.025 3.195,4.86 1.08,2.79 1.08,6.165 0,3.375 -1.08,6.21 -1.08,2.79 -3.15,4.815 -2.07,2.025 -5.085,3.15 -3.015,1.125 -6.885,1.125 l -6.84,0 0,-30.6 z m 6.615,29.295 q 3.735,0 6.525,-1.035 2.79,-1.035 4.635,-2.88 1.89,-1.845 2.835,-4.41 0.945,-2.565 0.945,-5.67 0,-3.105 -0.945,-5.67 -0.945,-2.565 -2.835,-4.41 -1.845,-1.845 -4.635,-2.88 -2.79,-1.035 -6.525,-1.035 l -5.175,0 0,27.99 5.175,0 z"
         style="font-style:normal;font-variant:normal;font-weight:300;font-stretch:normal;font-size:45px;font-family:ADELE;-inkscape-font-specification:'ADELE Light';text-align:center;text-anchor:middle;fill:#ffffff;fill-opacity:1"
         id="path4217"
         inkscape:connector-curvature="0" />
      <path
         d="m 346.17863,694.74375 17.64,0 0,1.26 -16.2,0 0,13.725 14.535,0 0,1.26 -14.535,0 0,13.095 16.83,0 0,1.26 -18.27,0 0,-30.6 z"
         style="font-style:normal;font-variant:normal;font-weight:300;font-stretch:normal;font-size:45px;font-family:ADELE;-inkscape-font-specification:'ADELE Light';text-align:center;text-anchor:middle;fill:#ffffff;fill-opacity:1"
         id="path4219"
         inkscape:connector-curvature="0" />
      <path
         d="m 370.26559,719.04375 q 1.305,2.52 3.6,3.96 2.295,1.395 5.265,1.395 3.69,0 5.67,-1.755 2.025,-1.755 2.025,-4.59 0,-1.395 -0.405,-2.475 -0.36,-1.125 -1.17,-2.025 -0.765,-0.945 -2.025,-1.755 -1.215,-0.81 -2.88,-1.62 l -2.79,-1.35 q -1.62,-0.81 -2.88,-1.53 -1.215,-0.765 -2.07,-1.62 -0.855,-0.9 -1.305,-1.98 -0.405,-1.08 -0.405,-2.565 0,-1.53 0.585,-2.79 0.585,-1.26 1.575,-2.115 0.99,-0.9 2.34,-1.35 1.35,-0.495 2.88,-0.495 2.79,0 4.68,1.035 1.935,1.035 3.33,3.285 l -1.08,0.63 q -1.17,-1.89 -2.835,-2.79 -1.665,-0.9 -4.095,-0.9 -2.655,0 -4.32,1.575 -1.665,1.53 -1.665,3.915 0,1.26 0.36,2.16 0.36,0.9 1.08,1.62 0.72,0.72 1.8,1.395 1.125,0.63 2.655,1.35 l 2.745,1.35 q 1.935,0.945 3.285,1.89 1.395,0.945 2.25,2.025 0.9,1.08 1.305,2.34 0.45,1.26 0.45,2.79 0,3.42 -2.385,5.535 -2.385,2.115 -6.705,2.115 -3.645,0 -6.165,-1.62 -2.475,-1.665 -3.915,-4.365 l 1.215,-0.675 z"
         style="font-style:normal;font-variant:normal;font-weight:300;font-stretch:normal;font-size:45px;font-family:ADELE;-inkscape-font-specification:'ADELE Light';text-align:center;text-anchor:middle;fill:#ffffff;fill-opacity:1"
         id="path4221"
         inkscape:connector-curvature="0" />
      <path
         d="m 395.57738,694.74375 1.44,0 0,30.6 -1.44,0 0,-30.6 z"
         style="font-style:normal;font-variant:normal;font-weight:300;font-stretch:normal;font-size:45px;font-family:ADELE;-inkscape-font-specification:'ADELE Light';text-align:center;text-anchor:middle;fill:#ffffff;fill-opacity:1"
         id="path4223"
         inkscape:connector-curvature="0" />
      <path
         d="m 419.35004,725.70375 q -3.285,0 -6.165,-1.17 -2.835,-1.17 -4.995,-3.24 -2.115,-2.07 -3.33,-4.95 -1.215,-2.88 -1.215,-6.3 0,-3.375 1.215,-6.255 1.215,-2.88 3.33,-4.95 2.115,-2.115 4.905,-3.285 2.835,-1.17 6.075,-1.17 3.96,0 7.155,1.44 3.24,1.44 5.58,4.635 l -1.125,0.81 q -2.025,-2.835 -4.95,-4.185 -2.925,-1.395 -6.66,-1.395 -3.015,0 -5.58,1.08 -2.565,1.08 -4.455,3.015 -1.89,1.935 -2.97,4.545 -1.035,2.61 -1.035,5.715 0,3.105 1.08,5.715 1.08,2.61 2.97,4.545 1.935,1.935 4.5,3.015 2.61,1.08 5.67,1.08 3.15,0 5.49,-0.855 2.34,-0.9 3.915,-2.295 1.62,-1.395 2.565,-3.105 0.945,-1.755 1.305,-3.465 l -12.735,0 0,-1.26 14.31,0 q -0.36,2.565 -1.485,4.815 -1.125,2.25 -3.015,3.915 -1.845,1.62 -4.455,2.61 -2.61,0.945 -5.895,0.945 z"
         style="font-style:normal;font-variant:normal;font-weight:300;font-stretch:normal;font-size:45px;font-family:ADELE;-inkscape-font-specification:'ADELE Light';text-align:center;text-anchor:middle;fill:#ffffff;fill-opacity:1"
         id="path4225"
         inkscape:connector-curvature="0" />
      <path
         d="m 441.87816,697.66875 0,27.675 -1.305,0 0,-31.365 0.18,0 21.42,28.44 0,-27.675 1.305,0 0,31.365 -0.18,0 -21.42,-28.44 z"
         style="font-style:normal;font-variant:normal;font-weight:300;font-stretch:normal;font-size:45px;font-family:ADELE;-inkscape-font-specification:'ADELE Light';text-align:center;text-anchor:middle;fill:#ffffff;fill-opacity:1"
         id="path4227"
         inkscape:connector-curvature="0" />
    </g>
    <path
       style="fill:none;fill-rule:evenodd;stroke:#ffffff;stroke-width:1.5;stroke-linecap:butt;stroke-linejoin:miter;stroke-miterlimit:4;stroke-dasharray:none;stroke-opacity:1"
       d="m 32.857143,962.93363 128.571427,0"
       id="path4264"
       inkscape:connector-curvature="0" />
    <path
       style="fill:none;fill-rule:evenodd;stroke:#ffffff;stroke-width:1.5;stroke-linecap:butt;stroke-linejoin:miter;stroke-miterlimit:4;stroke-dasharray:none;stroke-opacity:1"
       d="m 592.85715,966.07649 128.57143,0"
       id="path4264-5"
       inkscape:connector-curvature="0" />
    <path
       style="fill:#ffffff;fill-opacity:1;fill-rule:evenodd;stroke:#ffffff;stroke-width:12;stroke-miterlimit:4;stroke-dasharray:none;stroke-opacity:1"
       d="m 375.68351,392.78711 a 3.2995183,3.0897667 0 0 1 2.3443,3.74398 3.2995183,3.0897667 0 0 1 -3.96627,2.24541 3.2995183,3.0897667 0 0 1 -2.45094,-3.68362 3.2995183,3.0897667 0 0 1 3.90037,-2.34444"
       id="path4365"
       inkscape:connector-curvature="0" />
    <path
       style="fill:#ffffff;fill-opacity:1;fill-rule:evenodd;stroke:#ffffff;stroke-width:12;stroke-miterlimit:4;stroke-dasharray:none;stroke-opacity:1"
       d="m 633.21128,654.82399 a 3.2995183,3.0897667 0 0 1 2.3443,3.74398 3.2995183,3.0897667 0 0 1 -3.96627,2.24541 3.2995183,3.0897667 0 0 1 -2.45094,-3.68362 3.2995183,3.0897667 0 0 1 3.90037,-2.34444"
       id="path4365-4"
       inkscape:connector-curvature="0" />
    <path
       style="fill:#ffffff;fill-opacity:1;fill-rule:evenodd;stroke:#ffffff;stroke-width:12;stroke-miterlimit:4;stroke-dasharray:none;stroke-opacity:1"
       d="m 372.59192,915.44337 a 3.2995183,3.0897667 0 0 1 2.34431,3.74398 3.2995183,3.0897667 0 0 1 -3.96627,2.24541 3.2995183,3.0897667 0 0 1 -2.45094,-3.68361 3.2995183,3.0897667 0 0 1 3.90037,-2.34445"
       id="path4365-3"
       inkscape:connector-curvature="0" />
    <path
       style="fill:#ffffff;fill-opacity:1;fill-rule:evenodd;stroke:#ffffff;stroke-width:12;stroke-miterlimit:4;stroke-dasharray:none;stroke-opacity:1"
       d="m 113.99292,649.77324 c 0.5022,0.12601 0.94641,0.35413 1.31376,0.65424 0.90797,0.74176 1.34642,1.9233 1.03054,3.08974 -0.44368,1.63837 -2.21087,2.63882 -3.96627,2.24541 -1.7554,-0.39342 -2.84743,-2.03467 -2.45094,-3.68362 0.39649,-1.64895 2.13431,-2.69352 3.90037,-2.34444"
       id="path4365-8"
       inkscape:connector-curvature="0"
       sodipodi:nodetypes="cssssc" />
    <path
       style="fill:#ffffff;fill-opacity:1;fill-rule:evenodd;stroke:#ffffff;stroke-width:8.04060364;stroke-miterlimit:4;stroke-dasharray:none;stroke-opacity:1"
       d="m 376.33881,433.60581 a 2.2451496,2.0386646 0 0 1 1.59517,2.47033 2.2451496,2.0386646 0 0 1 -2.69884,1.48154 2.2451496,2.0386646 0 0 1 -1.66773,-2.43049 2.2451496,2.0386646 0 0 1 2.654,-1.54689"
       id="path4365-6"
       inkscape:connector-curvature="0" />
    <path
       style="fill:#ffffff;fill-opacity:1;fill-rule:evenodd;stroke:#ffffff;stroke-width:8.04060364;stroke-miterlimit:4;stroke-dasharray:none;stroke-opacity:1"
       d="m 373.32898,789.17918 a 2.2451496,2.0386646 0 0 1 1.59518,2.47032 2.2451496,2.0386646 0 0 1 -2.69884,1.48155 2.2451496,2.0386646 0 0 1 -1.66774,-2.43049 2.2451496,2.0386646 0 0 1 2.654,-1.5469"
       id="path4365-6-0"
       inkscape:connector-curvature="0" />
    <path
       style="fill:none;fill-rule:evenodd;stroke:#ffffff;stroke-width:0.5;stroke-linecap:butt;stroke-linejoin:miter;stroke-miterlimit:4;stroke-dasharray:none;stroke-opacity:1"
       d="M 376.7869,432.54474 630.33519,656.79861 103.03556,655.78846 374.76659,793.1692 375.77675,391.12849"
       id="path4415"
       inkscape:connector-curvature="0" />
    <path
       style="fill:none;fill-rule:evenodd;stroke:#ffffff;stroke-width:0.5;stroke-linecap:butt;stroke-linejoin:miter;stroke-miterlimit:4;stroke-dasharray:none;stroke-opacity:1"
       d="M 373.75644,434.56505 119.198,652.758 629.32504,653.76815 376.7869,791.1489 l 1.01015,-357.594 3.03046,-36.36549"
       id="path4417"
       inkscape:connector-curvature="0" />
  </g>
</svg>
