<?xml version="1.0" encoding="UTF-8" standalone="no"?>
<!-- Created with Inkscape (http://www.inkscape.org/) -->

<svg
   xmlns:dc="http://purl.org/dc/elements/1.1/"
   xmlns:cc="http://creativecommons.org/ns#"
   xmlns:rdf="http://www.w3.org/1999/02/22-rdf-syntax-ns#"
   xmlns:svg="http://www.w3.org/2000/svg"
   xmlns="http://www.w3.org/2000/svg"
   xmlns:sodipodi="http://sodipodi.sourceforge.net/DTD/sodipodi-0.dtd"
   xmlns:inkscape="http://www.inkscape.org/namespaces/inkscape"
   width="210mm"
   height="200mm"
   viewBox="0 0 744.09449 708.66141"
   id="svg2"
   version="1.1"
   inkscape:version="0.92.1 r15371"
   sodipodi:docname="drawingblancparcours.svg">
  <defs
     id="defs4">
    <inkscape:perspective
       sodipodi:type="inkscape:persp3d"
       inkscape:vp_x="0 : 526.18106 : 1"
       inkscape:vp_y="0 : 999.99994 : 0"
       inkscape:vp_z="744.09449 : 526.18106 : 1"
       inkscape:persp3d-origin="372.04724 : 350.78738 : 1"
       id="perspective4299" />
  </defs>
  <sodipodi:namedview
     id="base"
     pagecolor="#ffffff"
     bordercolor="#66bb66"
     borderopacity="0.20784314"
     inkscape:pageopacity="0.0"
     inkscape:pageshadow="2"
     inkscape:zoom="0.98818173"
     inkscape:cx="389.37421"
     inkscape:cy="548.2432"
     inkscape:document-units="px"
     inkscape:current-layer="layer1"
     showgrid="false"
     inkscape:window-width="1920"
     inkscape:window-height="1016"
     inkscape:window-x="0"
     inkscape:window-y="27"
     inkscape:window-maximized="1"
     showborder="true"
     borderlayer="false">
    <inkscape:grid
       type="xygrid"
       id="grid4156" />
  </sodipodi:namedview>
  <metadata
     id="metadata7">
    <rdf:RDF>
      <cc:Work
         rdf:about="">
        <dc:format>image/svg+xml</dc:format>
        <dc:type
           rdf:resource="http://purl.org/dc/dcmitype/StillImage" />
        <dc:title></dc:title>
      </cc:Work>
    </rdf:RDF>
  </metadata>
  <g
     inkscape:label="Layer 1"
     inkscape:groupmode="layer"
     id="layer1"
     transform="translate(0,-343.70079)">
    <rect
       style="fill:#009d00;fill-opacity:0;fill-rule:evenodd;stroke:#202731;stroke-width:1.37681174;stroke-miterlimit:4;stroke-dasharray:none;stroke-opacity:1"
       id="rect4251"
       width="971.40436"
       height="987.59576"
       x="-139.61201"
       y="246.95251" />
    <flowRoot
       transform="translate(0,2.8727963e-6)"
       xml:space="preserve"
       id="flowRoot4250"
       style="font-style:normal;font-weight:normal;line-height:0.01%;font-family:sans-serif;letter-spacing:0px;word-spacing:0px;fill:#000000;fill-opacity:1;stroke:none;stroke-width:1px;stroke-linecap:butt;stroke-linejoin:miter;stroke-opacity:1"><flowRegion
         id="flowRegion4252"><rect
           id="rect4254"
           width="87.14286"
           height="54.285713"
           x="680"
           y="693.79077" /></flowRegion><flowPara
         id="flowPara4256"
         style="font-size:40px;line-height:1.25"> </flowPara></flowRoot>    <path
       transform="translate(0,2.8727963e-6)"
       style="fill:none;fill-opacity:0.7150259;fill-rule:evenodd;stroke:#ffffff;stroke-width:2;stroke-miterlimit:4;stroke-dasharray:none;stroke-opacity:1"
       d="M 375.74257,394.88481 635.19192,658.67646 371.40027,918.12581 111.95092,654.33416 Z"
       id="rect4154"
       inkscape:connector-curvature="0" />
    <path
       transform="translate(0,2.8727963e-6)"
       style="fill:none;fill-rule:evenodd;stroke:#ffffff;stroke-width:4.5;stroke-linecap:butt;stroke-linejoin:miter;stroke-miterlimit:4;stroke-dasharray:none;stroke-opacity:1"
       d="M 346.56278,423.85438 143.70118,620.95124"
       id="path4160"
       inkscape:connector-curvature="0" />
    <path
       transform="translate(0,2.8727963e-6)"
       style="fill:none;fill-rule:evenodd;stroke:#ffffff;stroke-width:4.5;stroke-linecap:butt;stroke-linejoin:miter;stroke-miterlimit:4;stroke-dasharray:none;stroke-opacity:1"
       d="M 606.22282,684.89462 405.20576,883.87235"
       id="path4160-8"
       inkscape:connector-curvature="0" />
    <path
       transform="translate(0,2.8727963e-6)"
       style="fill:none;fill-rule:evenodd;stroke:#ffffff;stroke-width:4.5;stroke-linecap:butt;stroke-linejoin:miter;stroke-miterlimit:4;stroke-dasharray:none;stroke-opacity:1"
       d="M 607.2318,629.39165 408.52454,428.10723"
       id="path4160-8-9"
       inkscape:connector-curvature="0" />
    <path
       transform="translate(0,2.8727963e-6)"
       style="fill:none;fill-rule:evenodd;stroke:#ffffff;stroke-width:4.5;stroke-linecap:butt;stroke-linejoin:miter;stroke-miterlimit:4;stroke-dasharray:none;stroke-opacity:1"
       d="M 338.69957,885.08591 140.15757,683.63849"
       id="path4160-8-9-2"
       inkscape:connector-curvature="0" />
    <path
       transform="translate(0,2.8727963e-6)"
       style="fill:#ffffff;fill-opacity:1;fill-rule:evenodd;stroke:#ffffff;stroke-width:12;stroke-miterlimit:4;stroke-dasharray:none;stroke-opacity:1"
       d="m 375.68351,392.78711 a 3.2995183,3.0897667 0 0 1 2.3443,3.74398 3.2995183,3.0897667 0 0 1 -3.96627,2.24541 3.2995183,3.0897667 0 0 1 -2.45094,-3.68362 3.2995183,3.0897667 0 0 1 3.90037,-2.34444"
       id="path4365"
       inkscape:connector-curvature="0" />
    <path
       transform="translate(0,2.8727963e-6)"
       style="fill:#ffffff;fill-opacity:1;fill-rule:evenodd;stroke:#ffffff;stroke-width:12;stroke-miterlimit:4;stroke-dasharray:none;stroke-opacity:1"
       d="m 633.21128,654.82399 a 3.2995183,3.0897667 0 0 1 2.3443,3.74398 3.2995183,3.0897667 0 0 1 -3.96627,2.24541 3.2995183,3.0897667 0 0 1 -2.45094,-3.68362 3.2995183,3.0897667 0 0 1 3.90037,-2.34444"
       id="path4365-4"
       inkscape:connector-curvature="0" />
    <path
       transform="translate(0,2.8727963e-6)"
       style="fill:#ffffff;fill-opacity:1;fill-rule:evenodd;stroke:#ffffff;stroke-width:12;stroke-miterlimit:4;stroke-dasharray:none;stroke-opacity:1"
       d="m 372.59192,915.44337 a 3.2995183,3.0897667 0 0 1 2.34431,3.74398 3.2995183,3.0897667 0 0 1 -3.96627,2.24541 3.2995183,3.0897667 0 0 1 -2.45094,-3.68361 3.2995183,3.0897667 0 0 1 3.90037,-2.34445"
       id="path4365-3"
       inkscape:connector-curvature="0" />
    <path
       transform="translate(0,2.8727963e-6)"
       style="fill:#ffffff;fill-opacity:1;fill-rule:evenodd;stroke:#ffffff;stroke-width:12;stroke-miterlimit:4;stroke-dasharray:none;stroke-opacity:1"
       d="m 113.99292,649.77324 c 0.5022,0.12601 0.94641,0.35413 1.31376,0.65424 0.90797,0.74176 1.34642,1.9233 1.03054,3.08974 -0.44368,1.63837 -2.21087,2.63882 -3.96627,2.24541 -1.7554,-0.39342 -2.84743,-2.03467 -2.45094,-3.68362 0.39649,-1.64895 2.13431,-2.69352 3.90037,-2.34444"
       id="path4365-8"
       inkscape:connector-curvature="0"
       sodipodi:nodetypes="cssssc" />
    <path
       style="fill:#ffffff;fill-opacity:1;fill-rule:evenodd;stroke:#ffffff;stroke-width:8.04060364;stroke-miterlimit:4;stroke-dasharray:none;stroke-opacity:1"
       d="m 438.41842,521.38868 a 2.2451496,2.0386646 0 0 1 1.59517,2.47033 2.2451496,2.0386646 0 0 1 -2.69884,1.48154 2.2451496,2.0386646 0 0 1 -1.66773,-2.43049 2.2451496,2.0386646 0 0 1 2.654,-1.54689"
       id="path4365-6"
       inkscape:connector-curvature="0" />
    <path
       transform="translate(0,2.8727963e-6)"
       style="fill:#ffffff;fill-opacity:1;fill-rule:evenodd;stroke:#ffffff;stroke-width:8.04060364;stroke-miterlimit:4;stroke-dasharray:none;stroke-opacity:1"
       d="m 373.32898,789.17918 a 2.2451496,2.0386646 0 0 1 1.59518,2.47032 2.2451496,2.0386646 0 0 1 -2.69884,1.48155 2.2451496,2.0386646 0 0 1 -1.66774,-2.43049 2.2451496,2.0386646 0 0 1 2.654,-1.5469"
       id="path4365-6-0"
       inkscape:connector-curvature="0" />
    <path
       transform="translate(0,2.8727963e-6)"
       style="fill:none;fill-rule:evenodd;stroke:#ffffff;stroke-width:0.5;stroke-linecap:butt;stroke-linejoin:miter;stroke-miterlimit:4;stroke-dasharray:none;stroke-opacity:1"
       d="M 438.41842,521.38868 630.33519,656.79861 103.03556,655.78846 374.76659,793.1692 375.77675,391.12849"
       id="path4415"
       inkscape:connector-curvature="0"
       sodipodi:nodetypes="ccccc" />
    <path
       style="fill:none;fill-rule:evenodd;stroke:#ffffff;stroke-width:0.5;stroke-linecap:butt;stroke-linejoin:miter;stroke-miterlimit:4;stroke-dasharray:none;stroke-opacity:1"
       d="M 438.30102,521.36317 119.198,652.758 629.32504,653.76815 376.7869,791.1489 438.41842,521.38868 380.82751,397.18941"
       id="path4417"
       inkscape:connector-curvature="0"
       transform="translate(0,2.8727963e-6)"
       sodipodi:nodetypes="cccccc" />
  </g>
</svg>
