<?xml version="1.0" encoding="UTF-8" standalone="no"?>
<!-- Created with Inkscape (http://www.inkscape.org/) -->

<svg
   xmlns:dc="http://purl.org/dc/elements/1.1/"
   xmlns:cc="http://creativecommons.org/ns#"
   xmlns:rdf="http://www.w3.org/1999/02/22-rdf-syntax-ns#"
   xmlns:svg="http://www.w3.org/2000/svg"
   xmlns="http://www.w3.org/2000/svg"
   xmlns:sodipodi="http://sodipodi.sourceforge.net/DTD/sodipodi-0.dtd"
   xmlns:inkscape="http://www.inkscape.org/namespaces/inkscape"
   width="12mm"
   height="12mm"
   viewBox="0 0 42.519677 42.519684"
   id="svg2"
   version="1.1"
   inkscape:version="0.92.1 r15371"
   sodipodi:docname="favIconSarahPeltier.svg">
  <defs
     id="defs4">
    <inkscape:perspective
       sodipodi:type="inkscape:persp3d"
       inkscape:vp_x="0 : 526.18106 : 1"
       inkscape:vp_y="0 : 999.99992 : 0"
       inkscape:vp_z="744.09433 : 526.18106 : 1"
       inkscape:persp3d-origin="372.04719 : 350.78737 : 1"
       id="perspective4299" />
  </defs>
  <sodipodi:namedview
     id="base"
     pagecolor="#ffffff"
     bordercolor="#66bb66"
     borderopacity="0.20784314"
     inkscape:pageopacity="0.0"
     inkscape:pageshadow="2"
     inkscape:zoom="7.9054538"
     inkscape:cx="19.895161"
     inkscape:cy="44.226592"
     inkscape:document-units="px"
     inkscape:current-layer="layer1"
     showgrid="false"
     inkscape:window-width="1920"
     inkscape:window-height="1016"
     inkscape:window-x="0"
     inkscape:window-y="27"
     inkscape:window-maximized="1"
     showborder="true"
     borderlayer="false">
    <inkscape:grid
       type="xygrid"
       id="grid4156" />
  </sodipodi:namedview>
  <metadata
     id="metadata7">
    <rdf:RDF>
      <cc:Work
         rdf:about="">
        <dc:format>image/svg+xml</dc:format>
        <dc:type
           rdf:resource="http://purl.org/dc/dcmitype/StillImage" />
        <dc:title></dc:title>
      </cc:Work>
    </rdf:RDF>
  </metadata>
  <g
     inkscape:label="Layer 1"
     inkscape:groupmode="layer"
     id="layer1"
     transform="translate(0,-1009.8425)">
    <flowRoot
       xml:space="preserve"
       id="flowRoot4250"
       style="font-style:normal;font-weight:normal;line-height:0.01%;font-family:sans-serif;letter-spacing:0px;word-spacing:0px;fill:#000000;fill-opacity:1;stroke:none;stroke-width:1px;stroke-linecap:butt;stroke-linejoin:miter;stroke-opacity:1"><flowRegion
         id="flowRegion4252"><rect
           id="rect4254"
           width="87.14286"
           height="54.285713"
           x="680"
           y="693.79077" /></flowRegion><flowPara
         id="flowPara4256"
         style="font-size:40px;line-height:1.25"> </flowPara></flowRoot>    <path
       style="fill:none;fill-opacity:0.7150259;fill-rule:evenodd;stroke:#ffffff;stroke-width:0.3768082;stroke-miterlimit:4;stroke-dasharray:none;stroke-opacity:1"
       d="m 22.610031,1015.6467 17.326466,16.7052 -17.616455,16.4303 -17.3264704,-16.7053 z"
       id="rect4154"
       inkscape:connector-curvature="0" />
    <path
       style="fill:none;fill-rule:evenodd;stroke:#ffffff;stroke-width:0.63771337;stroke-linecap:butt;stroke-linejoin:miter;stroke-miterlimit:4;stroke-dasharray:none;stroke-opacity:1"
       d="M 20.661355,1017.4813 7.1139084,1029.9629"
       id="path4160"
       inkscape:connector-curvature="0" />
    <path
       style="fill:none;fill-rule:evenodd;stroke:#ffffff;stroke-width:0.63771337;stroke-linecap:butt;stroke-linejoin:miter;stroke-miterlimit:4;stroke-dasharray:none;stroke-opacity:1"
       d="M 38.001897,1034.0123 24.577632,1046.613"
       id="path4160-8"
       inkscape:connector-curvature="0" />
    <path
       style="fill:none;fill-rule:evenodd;stroke:#ffffff;stroke-width:0.63771337;stroke-linecap:butt;stroke-linejoin:miter;stroke-miterlimit:4;stroke-dasharray:none;stroke-opacity:1"
       d="m 38.069274,1030.4974 -13.27001,-12.7468"
       id="path4160-8-9"
       inkscape:connector-curvature="0" />
    <path
       style="fill:none;fill-rule:evenodd;stroke:#ffffff;stroke-width:0.63771337;stroke-linecap:butt;stroke-linejoin:miter;stroke-miterlimit:4;stroke-dasharray:none;stroke-opacity:1"
       d="M 20.136236,1046.6899 6.8772574,1033.9327"
       id="path4160-8-9-2"
       inkscape:connector-curvature="0" />
    <path
       style="fill:#ffffff;fill-opacity:1;fill-rule:evenodd;stroke:#ffffff;stroke-width:0.78037989;stroke-miterlimit:4;stroke-dasharray:none;stroke-opacity:1"
       d="m 22.606081,1015.5138 a 0.22034748,0.19566708 0 0 1 0.156558,0.2371 0.22034748,0.19566708 0 0 1 -0.264872,0.1422 0.22034748,0.19566708 0 0 1 -0.163675,-0.2332 0.22034748,0.19566708 0 0 1 0.260472,-0.1485"
       id="path4365"
       inkscape:connector-curvature="0" />
    <path
       style="fill:#ffffff;fill-opacity:1;fill-rule:evenodd;stroke:#ffffff;stroke-width:0.78037989;stroke-miterlimit:4;stroke-dasharray:none;stroke-opacity:1"
       d="m 39.804233,1032.108 a 0.22034748,0.19566708 0 0 1 0.156552,0.2371 0.22034748,0.19566708 0 0 1 -0.264872,0.1422 0.22034748,0.19566708 0 0 1 -0.163675,-0.2333 0.22034748,0.19566708 0 0 1 0.260472,-0.1485"
       id="path4365-4"
       inkscape:connector-curvature="0" />
    <path
       style="fill:#ffffff;fill-opacity:1;fill-rule:evenodd;stroke:#ffffff;stroke-width:1.48337281;stroke-miterlimit:4;stroke-dasharray:none;stroke-opacity:1"
       d="m 22.489808,1048.105 a 0.41170894,0.37837643 0 0 1 0.29252,0.4585 0.41170894,0.37837643 0 0 1 -0.49491,0.275 0.41170894,0.37837643 0 0 1 -0.30583,-0.4511 0.41170894,0.37837643 0 0 1 0.48669,-0.2871"
       id="path4365-3"
       inkscape:connector-curvature="0" />
    <path
       style="fill:#ffffff;fill-opacity:1;fill-rule:evenodd;stroke:#ffffff;stroke-width:0.78037989;stroke-miterlimit:4;stroke-dasharray:none;stroke-opacity:1"
       d="m 5.1299406,1031.7881 c 0.0335,0.01 0.0632,0.022 0.08773,0.041 0.06064,0.047 0.08992,0.1218 0.06882,0.1957 -0.02965,0.1037 -0.147641,0.167 -0.264871,0.1421 -0.117226,-0.025 -0.190158,-0.1288 -0.163676,-0.2332 0.02649,-0.1045 0.142535,-0.1706 0.260472,-0.1485"
       id="path4365-8"
       inkscape:connector-curvature="0"
       sodipodi:nodetypes="cssssc" />
    <path
       style="fill:#ffffff;fill-opacity:1;fill-rule:evenodd;stroke:#ffffff;stroke-width:0.52289379;stroke-miterlimit:4;stroke-dasharray:none;stroke-opacity:1"
       d="m 22.64985,1018.0988 a 0.14993494,0.12910345 0 0 1 0.106527,0.1564 0.14993494,0.12910345 0 0 1 -0.180235,0.094 0.14993494,0.12910345 0 0 1 -0.11137,-0.1539 0.14993494,0.12910345 0 0 1 0.177237,-0.098"
       id="path4365-6"
       inkscape:connector-curvature="0" />
    <path
       style="fill:#ffffff;fill-opacity:1;fill-rule:evenodd;stroke:#ffffff;stroke-width:0.52289379;stroke-miterlimit:4;stroke-dasharray:none;stroke-opacity:1"
       d="m 22.44885,1040.6163 a 0.14993494,0.12910345 0 0 1 0.106526,0.1565 0.14993494,0.12910345 0 0 1 -0.180234,0.094 0.14993494,0.12910345 0 0 1 -0.111376,-0.1539 0.14993494,0.12910345 0 0 1 0.177237,-0.098"
       id="path4365-6-0"
       inkscape:connector-curvature="0" />
    <path
       style="fill:none;fill-rule:evenodd;stroke:#ffffff;stroke-width:0.32847419;stroke-linecap:butt;stroke-linejoin:miter;stroke-miterlimit:4;stroke-dasharray:none;stroke-opacity:1"
       d="m 22.679773,1018.0316 16.932387,14.2014 -35.2139684,-0.064 18.1466624,8.7001 0.06746,-25.4603"
       id="path4415"
       inkscape:connector-curvature="0" />
    <path
       style="fill:none;fill-rule:evenodd;stroke:#ffffff;stroke-width:0.32847419;stroke-linecap:butt;stroke-linejoin:miter;stroke-miterlimit:4;stroke-dasharray:none;stroke-opacity:1"
       d="m 22.477397,1018.1595 -16.9998534,13.8176 34.0671594,0.064 -16.86493,8.7 0.06746,-22.6455 0.202381,-2.303"
       id="path4417"
       inkscape:connector-curvature="0" />
    <path
       style="fill:#ffffff;fill-opacity:1;fill-rule:evenodd;stroke:#ffffff;stroke-width:1.48337293;stroke-miterlimit:4;stroke-dasharray:none;stroke-opacity:1"
       d="m 39.81424,1032.1102 a 0.41170896,0.37837645 0 0 1 0.29252,0.4585 0.41170896,0.37837645 0 0 1 -0.49491,0.275 0.41170896,0.37837645 0 0 1 -0.30583,-0.4511 0.41170896,0.37837645 0 0 1 0.48669,-0.2871"
       id="path4365-3-3"
       inkscape:connector-curvature="0" />
    <path
       style="fill:#ffffff;fill-opacity:1;fill-rule:evenodd;stroke:#ffffff;stroke-width:1.48337293;stroke-miterlimit:4;stroke-dasharray:none;stroke-opacity:1"
       d="m 22.633844,1015.4135 a 0.41170896,0.37837645 0 0 1 0.29252,0.4585 0.41170896,0.37837645 0 0 1 -0.49491,0.275 0.41170896,0.37837645 0 0 1 -0.30583,-0.4511 0.41170896,0.37837645 0 0 1 0.48669,-0.2871"
       id="path4365-3-6"
       inkscape:connector-curvature="0" />
    <path
       style="fill:#ffffff;fill-opacity:1;fill-rule:evenodd;stroke:#ffffff;stroke-width:1.48337293;stroke-miterlimit:4;stroke-dasharray:none;stroke-opacity:1"
       d="m 5.1184156,1031.7852 a 0.41170896,0.37837645 0 0 1 0.29252,0.4585 0.41170896,0.37837645 0 0 1 -0.49491,0.275 0.41170896,0.37837645 0 0 1 -0.30583,-0.4511 0.41170896,0.37837645 0 0 1 0.48669,-0.2871"
       id="path4365-3-7"
       inkscape:connector-curvature="0" />
  </g>
</svg>
